<?xml version="1.0"?><svg fill="#FD7E14" xmlns="http://www.w3.org/2000/svg"  viewBox="0 0 30 30" width="50px" height="50px">    <path d="M 25 1.5 L 22.5 4 L 24 4 L 24 17 L 22.5 17 L 25 19.5 L 27.5 17 L 26 17 L 26 4 L 27.5 4 L 25 1.5 z M 14.433594 2 C 13.223594 2 12 3.5 12 5.5 C 12 7.003 12.679688 9 12.679688 9 L 16.40625 8.9980469 C 16.40625 8.9980469 16.998047 6.75 16.998047 5.5 C 16.998047 3 15.730594 2 14.433594 2 z M 20 2 A 1 1 0 0 0 19 3 A 1 1 0 0 0 20 4 A 1 1 0 0 0 21 3 A 1 1 0 0 0 20 2 z M 12.679688 11 C 12.679688 12.285 13.153969 14 14.542969 14 C 15.924969 14 16.41525 12.403 16.40625 11 L 12.679688 11 z M 6.4335938 17 C 5.2235938 17 4 18.5 4 20.5 C 4 22.003 4.6796875 24 4.6796875 24 L 8.40625 23.998047 C 8.40625 23.998047 8.9980469 21.75 8.9980469 20.5 C 8.9980469 18 7.7305938 17 6.4335938 17 z M 12 17 A 1 1 0 0 0 11 18 A 1 1 0 0 0 12 19 A 1 1 0 0 0 13 18 A 1 1 0 0 0 12 17 z M 16 17 A 1 1 0 0 0 15 18 A 1 1 0 0 0 16 19 A 1 1 0 0 0 17 18 A 1 1 0 0 0 16 17 z M 20 17 A 1 1 0 0 0 19 18 A 1 1 0 0 0 20 19 A 1 1 0 0 0 21 18 A 1 1 0 0 0 20 17 z M 4.6796875 26 C 4.6796875 27.285 5.1539688 29 6.5429688 29 C 7.9249687 29 8.41525 27.403 8.40625 26 L 4.6796875 26 z"/></svg>