<svg fill="#FD7E14" xmlns="http://www.w3.org/2000/svg"  viewBox="0 0 24 24" width="50px" height="50px"><path d="M4 19c-.55 0-1 .45-1 1s.45 1 1 1h10.42c.03-.83.74-1.51 1.71-2H4zM4.515 9H5v7c0 .55.45 1 1 1s1-.45 1-1V9h2v7c0 .55.45 1 1 1s1-.45 1-1V9h2v8h2V9h2v4.42c.52-.6 1.21-1.04 2-1.24V9h.485C20.322 9 21 8.322 21 7.485c0-.599-.353-1.141-.9-1.385l-7.485-3.327c-.392-.174-.839-.174-1.231 0L3.9 6.1C3.353 6.343 3 6.886 3 7.485 3 8.322 3.678 9 4.515 9zM19 14.27c-.6.35-1 .99-1 1.73 0 .36.1.71.27 1 .31.52.84.9 1.47.98h.01C19.83 17.99 19.91 18 20 18c.17 0 .33-.02.48-.06C21.35 17.72 22 16.93 22 16c0-1.1-.9-2-2-2C19.64 14 19.29 14.1 19 14.27zM21 20.1c-.36-.07-.7-.1-.98-.1-.01 0-.01 0-.02 0-.92 0-2.49.35-3.36 1C16.25 21.29 16 21.64 16 22.05V24h8v-1.95C24 21.01 22.35 20.34 21 20.1z"/></svg>